name D:\school\WTK\thesis\model\3dpredictsim\Results\test_WL_v2\Fal_s1_bCst_PF_linear_ls135_k_nonl150_d05_Mmtp_ig24_v3.mot
datacolumns 128
datarows 4
range 0.00000000 0.03518342
endheader
time	pelvis_tilt	pelvis_list	pelvis_rotation	pelvis_tx	pelvis_ty	pelvis_tz	hip_flexion_l	hip_adduction_l	hip_rotation_l	hip_flexion_r	hip_adduction_r	hip_rotation_r	knee_angle_l	knee_angle_r	ankle_angle_l	ankle_angle_r	subtalar_angle_l	subtalar_angle_r	tmt_angle_l	tmt_angle_r	mtp_angle_l	mtp_angle_r	lumbar_extension	lumbar_bending	lumbar_rotation	arm_flex_l	arm_add_l	arm_rot_l	arm_flex_r	arm_add_r	arm_rot_r	elbow_flex_l	elbow_flex_r	pro_sup_l	pro_sup_r	glut_med1_l/activation	glut_med2_l/activation	glut_med3_l/activation	glut_min1_l/activation	glut_min2_l/activation	glut_min3_l/activation	semimem_l/activation	semiten_l/activation	bifemlh_l/activation	bifemsh_l/activation	sar_l/activation	add_long_l/activation	add_brev_l/activation	add_mag1_l/activation	add_mag2_l/activation	add_mag3_l/activation	tfl_l/activation	pect_l/activation	grac_l/activation	glut_max1_l/activation	glut_max2_l/activation	glut_max3_l/activation	iliacus_l/activation	psoas_l/activation	quad_fem_l/activation	gem_l/activation	peri_l/activation	rect_fem_l/activation	vas_med_l/activation	vas_int_l/activation	vas_lat_l/activation	med_gas_l/activation	lat_gas_l/activation	soleus_l/activation	tib_post_l/activation	flex_dig_l/activation	flex_hal_l/activation	tib_ant_l/activation	per_brev_l/activation	per_long_l/activation	per_tert_l/activation	ext_dig_l/activation	ext_hal_l/activation	ercspn_l/activation	intobl_l/activation	extobl_l/activation	glut_med1_r/activation	glut_med2_r/activation	glut_med3_r/activation	glut_min1_r/activation	glut_min2_r/activation	glut_min3_r/activation	semimem_r/activation	semiten_r/activation	bifemlh_r/activation	bifemsh_r/activation	sar_r/activation	add_long_r/activation	add_brev_r/activation	add_mag1_r/activation	add_mag2_r/activation	add_mag3_r/activation	tfl_r/activation	pect_r/activation	grac_r/activation	glut_max1_r/activation	glut_max2_r/activation	glut_max3_r/activation	iliacus_r/activation	psoas_r/activation	quad_fem_r/activation	gem_r/activation	peri_r/activation	rect_fem_r/activation	vas_med_r/activation	vas_int_r/activation	vas_lat_r/activation	med_gas_r/activation	lat_gas_r/activation	soleus_r/activation	tib_post_r/activation	flex_dig_r/activation	flex_hal_r/activation	tib_ant_r/activation	per_brev_r/activation	per_long_r/activation	per_tert_r/activation	ext_dig_r/activation	ext_hal_r/activation	ercspn_r/activation	intobl_r/activation	extobl_r/activation	
          0.00000000	         -2.93012060	         -3.18217325	          6.08214727	          0.00000000	          0.91868900	         -0.00158926	        -14.66960006	         -1.65136861	          7.50004097	         29.22440162	          4.35110815	         -3.80223430	        -14.40327357	        -11.05561290	         -4.61238521	          8.15503507	          3.63716370	         -5.39039385	          4.96181140	         -3.65865234	         14.87867983	         -1.07949464	         -1.92184215	          1.20126864	         -2.52667234	          6.12610620	        -13.45611095	         18.52703886	         -6.34901866	        -13.46162724	          6.47683044	         39.45479123	         14.50109409	         86.51662706	         86.51662706	          0.23894073	          0.06732643	          0.05000010	          0.22578569	          0.14536844	          0.07333315	          0.05000261	          0.05000026	          0.05000023	          0.05014048	          0.07394186	          0.08314152	          0.05599492	          0.05000114	          0.05000173	          0.05000077	          0.22715655	          0.09452167	          0.05000192	          0.05000121	          0.05000062	          0.05000040	          0.44947547	          0.53279833	          0.05000012	          0.05000073	          0.05000124	          0.34306046	          0.18818459	          0.19592405	          0.18627029	          0.21670097	          0.31689091	          0.28584563	          0.31590203	          0.11873570	          0.10170646	          0.05000010	          0.05000045	          0.05000017	          0.05000025	          0.29271318	          0.07145744	          0.05000002	          0.07338201	          0.06823192	          0.11283546	          0.05653020	          0.05000026	          0.05977387	          0.05977325	          0.05000110	          0.23576138	          0.07656290	          0.10547019	          0.05000244	          0.05000066	          0.10212639	          0.23277589	          0.20475072	          0.16361903	          0.09969993	          0.05000020	          0.05002421	          0.12290530	          0.05210400	          0.06757827	          0.11143907	          0.05569654	          0.05133426	          0.57511700	          0.18736485	          0.17507287	          0.07145740	          0.14299355	          0.14129093	          0.12290352	          0.05000004	          0.05000007	          0.05000000	          0.05000024	          0.05000040	          0.05000038	          0.50027514	          0.27015510	          0.18253865	          0.18970316	          0.49116804	          0.07379543	          0.05000002	          0.12370251	          0.12208214	
          0.01172781	         -2.92918440	         -3.26766807	          6.41754343	          0.01820114	          0.91746805	         -0.00144602	        -15.07732588	         -2.03351768	          7.36248014	         28.45803075	          4.63245869	         -3.56992936	        -15.30613882	        -11.48992254	         -4.86819694	          7.50850241	          4.62430870	         -5.83458267	          2.67010757	         -3.86337580	         18.34298384	         -0.97640349	         -1.67996004	          1.37407626	         -2.62100205	          5.71455432	        -13.46755864	         18.71044877	         -7.32355326	        -13.45433082	          6.37894459	         40.72640248	         14.07213304	         86.51662706	         86.51662706	          0.28854872	          0.05631832	          0.05000010	          0.18886894	          0.12160016	          0.06134293	          0.05000730	          0.05000886	          0.05000090	          0.05000011	          0.06185219	          0.09212516	          0.05977586	          0.05977394	          0.05977430	          0.05977416	          0.19001565	          0.07907036	          0.05000178	          0.05000850	          0.05002002	          0.05977316	          0.37786205	          0.57130465	          0.05000050	          0.05000076	          0.05000006	          0.28696864	          0.20356536	          0.19969331	          0.18522814	          0.18127026	          0.26801385	          0.25455128	          0.30236882	          0.16785253	          0.19875819	          0.05274577	          0.05000019	          0.08049516	          0.05011344	          0.28482354	          0.05977389	          0.05000002	          0.06138375	          0.07145658	          0.27158413	          0.05000008	          0.22401684	          0.05000064	          0.05000020	          0.05000024	          0.21995953	          0.10127431	          0.10616350	          0.05000063	          0.05000069	          0.08542843	          0.19471696	          0.17127365	          0.13686704	          0.10807195	          0.05000075	          0.05979178	          0.14248835	          0.05000034	          0.05652951	          0.09321858	          0.05000355	          0.05000176	          0.48108293	          0.15672997	          0.20096322	          0.05977381	          0.11961352	          0.11818929	          0.10280829	          0.05977366	          0.05978373	          0.05762180	          0.05000030	          0.05349515	          0.05624712	          0.49312458	          0.34183370	          0.19292567	          0.15868593	          0.51700997	          0.06172958	          0.05000001	          0.13680847	          0.10212119	
          0.02345562	         -2.92737124	         -3.35668044	          6.71360075	          0.03661574	          0.91626273	         -0.00130762	        -15.47483101	         -2.42746793	          7.21572389	         27.60609826	          4.86628514	         -3.32282379	        -16.16685044	        -11.94052365	         -5.18884118	          6.82805001	          5.63936049	         -6.28980051	         -0.01810406	         -3.87633084	         22.39456319	         -0.75122015	         -1.43380107	          1.56525500	         -2.70657803	          5.22848558	        -13.48192277	         18.82133165	         -8.30042207	        -13.45459565	          6.31064399	         41.96699835	         13.70321838	         86.51662706	         86.51662706	          0.32202472	          0.05000040	          0.05000013	          0.41272685	          0.10171835	          0.05131354	          0.05000199	          0.05000021	          0.05000018	          0.05977280	          0.07997030	          0.07706240	          0.05000234	          0.05000076	          0.05000123	          0.05000097	          0.15894785	          0.06615183	          0.05000063	          0.05000140	          0.05000068	          0.05000039	          0.33880135	          0.57770177	          0.05000008	          0.05000058	          0.05000049	          0.24235492	          0.17028499	          0.20791003	          0.19608292	          0.15163179	          0.22419245	          0.21293105	          0.26952778	          0.14040803	          0.16626046	          0.05000002	          0.05429855	          0.10674717	          0.05000010	          0.32037016	          0.05000063	          0.05686235	          0.05134725	          0.05977313	          0.33924385	          0.27984707	          0.35273912	          0.18284605	          0.22341372	          0.23975591	          0.18399523	          0.08471576	          0.08880538	          0.08542356	          0.05068038	          0.07146056	          0.16287993	          0.14326983	          0.11448899	          0.14458338	          0.05000067	          0.05001608	          0.11919126	          0.20258722	          0.15443285	          0.11519699	          0.05000019	          0.05000019	          0.40242386	          0.13110409	          0.16810602	          0.05000058	          0.10005631	          0.09886496	          0.08599880	          0.05000052	          0.05000894	          0.05000005	          0.05000010	          0.05000025	          0.05000026	          0.58355777	          0.37056764	          0.20185587	          0.44456612	          0.54024028	          0.20424219	          0.07104279	          0.12208202	          0.08542394	
          0.03518342	         -2.92522481	         -3.43972923	          6.96763238	          0.05501551	          0.91521524	         -0.00113148	        -15.78886578	         -2.82115836	          7.08096280	         26.80703487	          5.10425836	         -3.08005964	        -17.07008058	        -12.47815420	         -5.85061317	          6.17042907	          6.67812841	         -6.73573531	         -2.74460317	         -3.93894863	         26.87178547	         -0.55304090	         -1.20430060	          1.76345493	         -2.78388494	          4.71367561	        -13.50032885	         18.88671291	         -9.22932475	        -13.45255681	          6.27197903	         43.12767182	         13.36753732	         86.51662706	         86.51662706	          0.26937269	          0.05000016	          0.05000006	          0.34524435	          0.08508707	          0.05000028	          0.05000152	          0.05000013	          0.05000012	          0.05000016	          0.06689496	          0.06446316	          0.14661115	          0.05000133	          0.05000344	          0.07172777	          0.13295933	          0.05977312	          0.05000047	          0.05000195	          0.05000127	          0.05000080	          0.28340592	          0.56392965	          0.05000011	          0.05000042	          0.05000010	          0.20272886	          0.17176125	          0.17391958	          0.16402379	          0.12683934	          0.18753602	          0.17811590	          0.22545907	          0.11745075	          0.13907619	          0.11476600	          0.10995559	          0.08929376	          0.06302306	          0.43508998	          0.05000019	          0.07680873	          0.05000001	          0.05000004	          0.43260015	          0.37640936	          0.42889879	          0.17575129	          0.21189464	          0.23779842	          0.15641118	          0.09683745	          0.08996078	          0.07145654	          0.05000051	          0.05977653	          0.13624850	          0.11984517	          0.16579649	          0.18589161	          0.05000029	          0.05000213	          0.09970423	          0.26743099	          0.21000156	          0.18433363	          0.05000011	          0.05000010	          0.33662589	          0.10966813	          0.17658181	          0.05000006	          0.13747846	          0.14728392	          0.11676135	          0.05000002	          0.05000004	          0.05000000	          0.05000003	          0.05000094	          0.05000050	          0.66327643	          0.34021335	          0.18117165	          0.60572443	          0.57455716	          0.17085037	          0.08897634	          0.10212110	          0.07145676	
